<svg width="129" height="63" viewBox="0 0 129 63" fill="none" xmlns="http://www.w3.org/2000/svg">
<rect width="129" height="63" fill="#B923E1"/>
<g clip-path="url(#clip0_0_1)">
<rect width="129" height="63" fill="black" fill-opacity="0.59"/>
<path d="M24.52 37.192C22.856 37.192 21.4267 36.6267 20.232 35.496C19.0373 34.3547 18.44 32.952 18.44 31.288C18.44 29.6133 18.9627 28.2107 20.008 27.08C21.0533 25.9387 22.392 25.368 24.024 25.368C25.304 25.368 26.6 25.5813 27.912 26.008L27.704 26.648C26.424 26.264 25.1973 26.072 24.024 26.072C22.6267 26.072 21.4853 26.5733 20.6 27.576C19.7147 28.5787 19.272 29.8053 19.272 31.256C19.272 32.7067 19.784 33.944 20.808 34.968C21.8427 35.9813 23.08 36.488 24.52 36.488C25.7787 36.488 26.8667 36.296 27.784 35.912L28.024 36.456C27.6187 36.6907 27.0853 36.872 26.424 37C25.7733 37.128 25.1387 37.192 24.52 37.192ZM39.6579 37V31.272H31.8019V37H31.0339V25.56H31.8019V30.584H39.6579V25.56H40.4259V37H39.6579ZM44.6432 37V25.608C45.6566 25.5333 46.5046 25.496 47.1873 25.496C48.2753 25.496 49.1713 25.7787 49.8753 26.344C50.5793 26.8987 50.9313 27.688 50.9313 28.712C50.9313 29.4053 50.7286 30.0507 50.3233 30.648C49.9179 31.2453 49.4646 31.72 48.9633 32.072C49.3579 32.616 49.8433 33.2667 50.4193 34.024C51.0059 34.7707 51.3846 35.24 51.5553 35.432C52.2059 36.1253 52.9419 36.52 53.7633 36.616L53.7473 37.128C53.0966 37.1173 52.5686 37.0213 52.1633 36.84C51.7579 36.648 51.3686 36.36 50.9953 35.976C50.6326 35.592 49.7206 34.3973 48.2593 32.392C47.2139 32.392 46.2646 32.36 45.4113 32.296V37H44.6432ZM47.7953 31.752C48.2646 31.752 48.7659 31.4427 49.2993 30.824C49.8326 30.2053 50.0993 29.4907 50.0993 28.68C50.0993 27.8587 49.8219 27.24 49.2673 26.824C48.7233 26.3973 47.9979 26.184 47.0913 26.184C46.6113 26.184 46.0513 26.2053 45.4113 26.248V31.672C46.2646 31.7253 47.0593 31.752 47.7953 31.752ZM55.1745 37V25.56H55.9425V37H55.1745ZM65.1029 26.568C64.3242 26.2373 63.5509 26.072 62.7829 26.072C61.2255 26.072 60.4469 26.648 60.4469 27.8C60.4469 28.3013 60.6229 28.7707 60.9749 29.208C61.3269 29.6347 61.7535 30.0187 62.2549 30.36C62.7562 30.6907 63.2575 31.032 63.7589 31.384C64.2602 31.736 64.6869 32.1573 65.0389 32.648C65.3909 33.1387 65.5669 33.672 65.5669 34.248C65.5669 35.2187 65.2415 35.9547 64.5909 36.456C63.9402 36.9467 63.0389 37.192 61.8869 37.192C60.7455 37.192 59.7695 36.8987 58.9589 36.312L59.3429 35.736C60.1109 36.2373 60.9535 36.488 61.8709 36.488C62.7882 36.488 63.4922 36.3067 63.9829 35.944C64.4735 35.5707 64.7189 35.0373 64.7189 34.344C64.7189 33.864 64.5429 33.4107 64.1909 32.984C63.8389 32.5467 63.4122 32.1573 62.9109 31.816C62.4095 31.464 61.9082 31.1067 61.4069 30.744C60.9055 30.3813 60.4789 29.9493 60.1269 29.448C59.7749 28.9467 59.5989 28.408 59.5989 27.832C59.5989 27.0747 59.8762 26.4773 60.4309 26.04C60.9962 25.592 61.7535 25.368 62.7029 25.368C63.6629 25.368 64.5535 25.56 65.3749 25.944L65.1029 26.568ZM71.0209 26.232H67.1489V25.56H75.6609V26.232H71.7889V37H71.0209V26.232ZM78.4615 35.48C77.4055 34.3387 76.8775 32.936 76.8775 31.272C76.8775 29.608 77.4055 28.2107 78.4615 27.08C79.5282 25.9387 80.8722 25.368 82.4935 25.368C84.1148 25.368 85.4588 25.9387 86.5255 27.08C87.5922 28.2107 88.1255 29.608 88.1255 31.272C88.1255 32.936 87.5922 34.3387 86.5255 35.48C85.4588 36.6213 84.1148 37.192 82.4935 37.192C80.8722 37.192 79.5282 36.6213 78.4615 35.48ZM79.0375 27.576C78.1522 28.568 77.7095 29.8 77.7095 31.272C77.7095 32.744 78.1522 33.9813 79.0375 34.984C79.9335 35.9867 81.0855 36.488 82.4935 36.488C83.9122 36.488 85.0642 35.9867 85.9495 34.984C86.8455 33.9813 87.2935 32.744 87.2935 31.272C87.2935 29.8 86.8455 28.568 85.9495 27.576C85.0642 26.5733 83.9122 26.072 82.4935 26.072C81.0748 26.072 79.9228 26.5733 79.0375 27.576ZM91.6745 37V25.624C92.5598 25.5387 93.4185 25.496 94.2505 25.496C95.3705 25.496 96.2665 25.7573 96.9385 26.28C97.6212 26.8027 97.9625 27.592 97.9625 28.648C97.9625 29.6933 97.4985 30.5573 96.5705 31.24C95.6532 31.912 94.5545 32.248 93.2745 32.248C93.2212 32.248 93.1625 32.248 93.0985 32.248V31.72C93.1412 31.72 93.1785 31.72 93.2105 31.72C94.2665 31.72 95.1838 31.4427 95.9625 30.888C96.7412 30.3333 97.1305 29.6133 97.1305 28.728C97.1305 27.832 96.8585 27.1867 96.3145 26.792C95.7705 26.3867 95.0398 26.184 94.1225 26.184C93.6425 26.184 93.0825 26.2053 92.4425 26.248V37H91.6745Z" fill="white"/>
<path d="M109.595 37V31.272H101.739V37H100.971V25.56H101.739V30.584H109.595V25.56H110.363V37H109.595ZM114.581 37V25.56H119.893V26.232H115.349V30.44H119.461V31.096H115.349V36.328H120.069V37H114.581Z" fill="#DA7C25" fill-opacity="0.65"/>
</g>
<defs>
<clipPath id="clip0_0_1">
<rect width="129" height="63" fill="white"/>
</clipPath>
</defs>
</svg>
